<?xml version="1.0" encoding="utf-8"?>
<!-- Generator: Adobe Illustrator 18.0.0, SVG Export Plug-In . SVG Version: 6.00 Build 0)  -->
<!DOCTYPE svg PUBLIC "-//W3C//DTD SVG 1.1//EN" "http://www.w3.org/Graphics/SVG/1.1/DTD/svg11.dtd">
<svg version="1.1" id="Layer_1" xmlns="http://www.w3.org/2000/svg" xmlns:xlink="http://www.w3.org/1999/xlink" x="0px" y="0px"
	 viewBox="0 0 216.6 56.3" enable-background="new 0 0 216.6 56.3" xml:space="preserve">
<g>
	<path fill="#20C997" d="M141.6,40.3c-3.5,2.7-7.1,5.1-10.8,7.3c-3.7,2.2-7.5,4.1-11.4,5.5c-3.9,1.4-7.8,2.4-11.6,2.8
		c-3.8,0.4-7.5,0.2-10.7-0.5c-3.2-0.7-6-2.1-8.2-3.5c-2.2-1.5-3.7-3.1-4.9-4.5c-1.1-1.4-1.8-2.6-2.2-3.5c-0.4-0.8-0.6-1.3-0.6-1.3
		s0.3,0.3,0.8,0.9c0.6,0.6,1.5,1.4,2.7,2.4c2.5,1.8,6.5,4,11.8,4.3c5.3,0.4,11.5-1.2,18.1-4.4c6.6-3.2,13.5-8.1,20.8-13.7
		c7.2-5.6,13.8-11.3,20-16.3c6.2-5,12-9.4,17.5-12.2c2.7-1.4,5.4-2.4,7.7-3c2.4-0.6,4.5-0.7,6.2-0.7c1.7,0.1,2.9,0.3,3.8,0.6
		c0.8,0.2,1.2,0.4,1.2,0.4s-0.5,0-1.4,0.1c-0.9,0.1-2.3,0.2-3.9,0.7c-3.3,0.8-7.5,3.2-11.9,7.1c-4.4,3.9-9.2,9.1-14.6,14.7
		C154.6,29,148.5,35,141.6,40.3z"/>
</g>
<g>
	<path d="M1,39.3c-0.6-0.4-1-1.1-1-2.1c0-0.1,0.1-0.1,0.2-0.1c0.1,0,0.4,0.1,0.8,0.2c0.5,0.1,1.3,0.2,2.4,0.2c2.6,0,4.9-0.4,7-1.2
		s3.8-1.8,5-3.1c1.2-1.3,1.8-2.6,1.8-4c0-1.7-0.8-2.8-2.5-3.4c-1.7-0.6-3.7-0.9-6.2-0.9l-2.6,0c-0.3,1.2-0.8,2.9-1.5,5.3
		c-0.5,1.8-1,3.7-1.6,5.8c-0.6,0-1.1-0.2-1.5-0.5c-0.4-0.3-0.6-0.7-0.6-1.2c0-0.3,0.1-0.7,0.2-1.1c0.1-0.4,0.2-0.7,0.3-0.9
		C1.9,30,3,26.8,4.4,22.8c1.4-4,2.8-7.3,4.1-9.8c-1.4,0.2-2.7,0.7-4,1.5c-0.4,0.2-0.7,0.3-0.8,0.3c-0.2,0-0.4-0.1-0.7-0.3
		c-0.3-0.2-0.4-0.4-0.4-0.6c1.5-0.6,2.9-1.1,4-1.4c1.2-0.3,2.6-0.5,4.2-0.5c2.1,0,4,0.4,5.6,1.2c1.6,0.8,2.4,2.2,2.4,4.3
		c0,2.1-0.8,3.6-2.3,4.6c-1.5,1-3.4,1.7-5.6,2.1c5.3,0.3,7.9,2.2,7.9,5.6c0,2.1-0.8,3.9-2.5,5.4c-1.7,1.5-3.7,2.7-6.1,3.5
		c-2.4,0.8-4.5,1.2-6.4,1.2C2.5,39.9,1.6,39.7,1,39.3z M13.7,22.3c2.1-1.1,3.1-2.8,3.1-5.1c0-3-1.9-4.5-5.8-4.5c-0.3,0-0.5,0-0.7,0
		c-1.4,2.7-2.8,6.4-4.2,11.3C9.1,24,11.6,23.4,13.7,22.3z"/>
	<path d="M20.7,37.2c-0.4-0.6-0.7-1.3-0.7-2.3c0-0.9,0.2-1.9,0.6-3c0.4-1,0.9-1.9,1.5-2.6c0.6-0.7,1.2-1,1.9-1
		c0.2,0,0.4,0.1,0.7,0.2c-0.3,0.2-0.6,0.7-1,1.5c-0.4,0.8-0.7,1.6-1,2.5c-0.3,0.9-0.4,1.6-0.4,2.2c0,1.3,0.4,2,1.2,2
		c0.5,0,1.1-0.3,1.7-0.8c0.7-0.5,1.3-1.2,2-2c-0.6-0.5-1.1-1.2-1.5-2.1c-0.4-0.9-0.5-1.7-0.5-2.7c0-1.2,0.3-2.2,0.9-3.1
		c0.6-0.9,1.4-1.3,2.5-1.3c0.9,0,1.5,0.2,1.9,0.7c0.4,0.5,0.5,1.1,0.5,2c0,0.9-0.2,1.9-0.6,3c-0.4,1.1-1,2.2-1.7,3.2
		c0.4,0.2,0.9,0.3,1.3,0.3c0.7,0,1.4-0.2,2.1-0.6c0.7-0.4,1.3-1,1.6-1.9l0.4,0.3c-0.4,1-1.1,1.8-1.9,2.2c-0.8,0.5-1.6,0.7-2.5,0.7
		c-0.6,0-1.2-0.1-1.7-0.3c-0.8,1.1-1.7,2-2.6,2.6c-0.9,0.7-1.8,1-2.6,1C21.8,38,21.1,37.7,20.7,37.2z M29.3,30.2
		c0.4-0.9,0.6-1.8,0.6-2.6c0-0.6-0.1-1.1-0.3-1.5c-0.2-0.3-0.4-0.5-0.7-0.5c-0.3,0-0.7,0.2-1,0.5c-0.3,0.3-0.6,0.7-0.8,1.3
		c-0.2,0.5-0.3,1.1-0.3,1.8c0,0.7,0.1,1.4,0.3,2.1s0.5,1.2,0.9,1.7C28.4,32.1,28.9,31.1,29.3,30.2z"/>
	<path d="M30.5,44.9c0-0.7,0.3-1.4,0.8-2c0.5-0.6,1.1-1.2,1.9-1.8c0.8-0.5,1.8-1.2,3.1-2c1-0.6,1.9-1.1,2.7-1.7
		c0-0.9-0.2-1.6-0.5-2.3c-0.4-0.7-1-1.4-1.9-2.1c0.8-0.2,1.4-0.6,2-1.2c0.6-0.6,1-1.2,1.3-1.9c0.3-0.7,0.4-1.4,0.4-2
		c0-0.5-0.1-1-0.3-1.3c-0.2-0.3-0.6-0.5-1-0.5c-0.7,0-1.4,0.3-2,0.8c-0.6,0.5-1.1,1.2-1.6,2c-0.5,0.8-1,2-1.7,3.4l-0.4-0.3
		c0.6-1.6,1.2-2.9,1.7-3.9c0.5-1,1.2-1.8,1.9-2.4c0.7-0.6,1.6-0.9,2.6-0.9c0.8,0,1.5,0.3,2,0.8c0.6,0.5,0.8,1.2,0.8,2.1
		c0,1.2-0.4,2.2-1.2,3.2c-0.8,1-1.8,1.7-2.9,2.3c1.2,0.9,2,2,2.4,3.1c2-1.5,3.3-3.1,3.8-4.9l0.4,0.4c-0.6,1.8-1.9,3.5-4,5.1
		c0.1,0.3,0.1,0.7,0.1,1.1c0,1.4-0.4,2.7-1.2,4.1s-1.8,2.4-3.1,3.3s-2.6,1.3-4,1.3C31.3,46.6,30.5,46,30.5,44.9z M35,44.7
		c1-0.6,1.8-1.5,2.6-2.6c0.8-1.1,1.2-2.4,1.4-3.9c-1,0.6-1.8,1.1-2.3,1.4c-1.2,0.7-2.2,1.3-2.9,1.8c-0.7,0.5-1.2,1-1.7,1.5
		c-0.4,0.5-0.7,1.1-0.7,1.7c0,0.4,0.1,0.7,0.3,0.9c0.2,0.2,0.5,0.3,0.8,0.3C33.2,45.6,34,45.3,35,44.7z M40,21.6
		c-0.5-0.4-0.9-1-1.3-1.6c-0.4-0.6-0.5-1.1-0.5-1.6c0-0.5,0.2-0.9,0.6-1.1c0.3,0.6,0.6,1.1,1,1.6c0.4,0.5,0.9,1,1.5,1.6
		c0.8-0.3,1.5-0.6,2-0.9c0.6-0.3,1.1-0.7,1.6-1.1c0.2,0.1,0.3,0.4,0.3,0.7c0,0.4-0.3,0.9-0.8,1.3c-0.5,0.5-1.1,0.9-1.7,1.2
		c-0.6,0.3-1.1,0.5-1.5,0.5C40.9,22.2,40.5,22,40,21.6z"/>
	<path d="M44.5,37c-0.5-0.5-0.7-1.2-0.7-2.1c0-0.9,0.3-2.1,0.8-3.7c0.5-1.6,1.2-3,1.9-4.2c0.8-1.2,1.5-1.8,2.3-1.8
		c0.2,0,0.4,0.1,0.5,0.2c0.1,0.1,0.2,0.3,0.2,0.6c0,0.3-0.4,1.1-1.1,2.3c-0.8,1.3-1.4,2.4-1.8,3.4c-0.4,1-0.7,2-0.7,2.9
		c0,0.8,0.1,1.4,0.4,1.6c0.3,0.3,0.7,0.4,1.3,0.4c1.8,0,3.6-1.8,5.3-5.3l0.3,0.3c-0.6,1.9-1.6,3.4-2.9,4.5c-1.3,1.1-2.6,1.6-4,1.6
		C45.6,37.8,44.9,37.6,44.5,37z M49.6,21.7c-0.3-0.2-0.4-0.5-0.4-0.8c0-0.5,0.3-0.9,0.8-1.2c0.6-0.4,1.1-0.6,1.7-0.6
		c0.8,0,1.1,0.4,1.1,1.1c0,0.4-0.2,0.9-0.7,1.3c-0.5,0.4-1,0.6-1.5,0.6C50.2,22,49.8,21.9,49.6,21.7z"/>
	<path d="M53.2,37.7c-0.7-0.8-1.1-1.9-1.1-3.3c0-1.5,0.4-3,1.1-4.4c0.8-1.4,1.7-2.6,2.9-3.5c1.2-0.9,2.4-1.3,3.5-1.3
		c0.9,0,1.5,0.2,1.9,0.7c0.4,0.5,0.6,1.1,0.6,1.8c0,0.7-0.2,1.3-0.5,1.8c-0.3,0.5-0.7,0.7-1.3,0.7c-0.4,0-0.7-0.2-1-0.5
		c0.3-0.2,0.6-0.5,0.9-1.1c0.3-0.6,0.4-1.1,0.4-1.6c0-0.3-0.1-0.5-0.2-0.7s-0.3-0.2-0.6-0.2c-0.8,0-1.6,0.5-2.5,1.4
		c-0.9,0.9-1.6,2.1-2.2,3.4c-0.6,1.3-0.9,2.6-0.9,3.7c0,0.8,0.2,1.5,0.6,2.1c0.4,0.5,1,0.8,1.9,0.8c1.4,0,2.8-0.6,4.2-1.7
		c1.4-1.2,2.4-2.7,3.2-4.5l0.4,0.3c-0.5,1.4-1.3,2.6-2.2,3.7c-0.9,1.1-1.9,2-3.1,2.6c-1.1,0.6-2.2,0.9-3.3,0.9
		C54.8,38.9,53.9,38.5,53.2,37.7z"/>
	<path d="M63.3,37.8c-0.5-0.5-0.7-1.2-0.7-2.1c0-1.4,0.5-2.9,1.5-4.6c1-1.7,2.2-3.1,3.7-4.3c1.5-1.2,3-1.8,4.4-1.8
		c0.9,0,1.6,0.2,2.2,0.7c0.6,0.5,0.9,1.1,0.9,1.9c0,0.5-0.2,0.9-0.4,1.1c-0.3,0.2-0.7,0.3-1.2,0.3c0.1-0.4,0.2-0.8,0.2-1.2
		c0-0.6-0.1-1-0.4-1.4c-0.3-0.4-0.7-0.5-1.3-0.5c-1,0-2.1,0.6-3.2,1.7c-1.1,1.1-2.1,2.5-2.8,4c-0.8,1.6-1.1,2.9-1.1,4
		c0,0.9,0.3,1.3,0.9,1.3c0.9,0,2-0.7,3.3-2.2c1.2-1.5,2.6-3.2,4-5.3c0.3,0,0.6,0.1,0.9,0.3c0.3,0.2,0.5,0.3,0.5,0.6
		c0,0.2-0.1,0.5-0.3,0.9c-0.2,0.4-0.4,0.6-0.4,0.7c-0.4,0.7-0.7,1.3-0.9,1.8c-0.2,0.5-0.3,1-0.3,1.4c0,0.4,0.1,0.7,0.3,1.1
		c0.2,0.3,0.5,0.5,0.9,0.5c0.7,0,1.5-0.5,2.5-1.4c1-1,2-2.3,3-4l0.3,0.3c-0.5,1.2-1.1,2.3-1.9,3.3c-0.8,1-1.6,1.7-2.5,2.2
		c-0.9,0.5-1.7,0.8-2.5,0.8c-0.8,0-1.4-0.2-1.9-0.7c-0.4-0.5-0.6-1-0.6-1.7c0-0.3,0-0.6,0.1-1c-1,1.4-2,2.4-2.8,3
		c-0.8,0.6-1.6,1-2.4,1C64.4,38.6,63.8,38.3,63.3,37.8z"/>
	<path d="M88.1,37.5c0.4-0.9,1.6-3.6,3.6-7.9c2-4.3,4-9,6.3-14c0.2-0.5,0.3-1,0.3-1.4c0-0.3-0.1-0.5-0.2-0.7
		c-0.2-0.1-0.5-0.2-0.9-0.2c-0.9,0-1.7,0.3-2.4,1c-0.6,0.6-1.1,1.4-1.5,2.4c-0.3,1-0.5,1.9-0.5,2.9c0,0.3,0,0.7,0.1,1.1
		c-0.6,0-1.1-0.3-1.4-0.9c-0.3-0.6-0.5-1.2-0.5-1.9c0-1,0.3-1.9,1-2.8s1.6-1.6,2.6-2.2c1-0.6,2.1-0.8,3.1-0.8c0.8,0,1.5,0.2,2,0.7
		c0.5,0.4,0.9,1.2,1.1,2.4c0.3,1.1,0.4,2.7,0.4,4.7c0,1.9-0.1,4.7-0.4,8.4c-0.1,1.8-0.2,3.5-0.3,5.2c0.8-3,2.2-6.5,4.4-10.3
		c2.1-3.9,4-6.9,5.5-9.2c0.4-0.6,0.7-0.9,0.9-1.1c0.2-0.2,0.5-0.3,0.8-0.3c0.3,0,0.7,0.1,1.1,0.2c-0.6,1.4-1.1,3-1.6,4.8
		c-0.8,3-1.5,6.5-2.2,10.5c-0.7,4-1,7-1,9c0,0.6,0,1,0.1,1.2c0,0.3,0.1,0.6,0.2,0.9l0.2,0.7c-0.8,0-1.4-0.1-1.8-0.4
		s-0.7-0.6-0.8-1.2c-0.1-0.5-0.2-1.3-0.2-2.3c0-2.5,0.3-5.1,0.9-7.9c0.6-2.8,1.4-6.4,2.6-10.8c-1,1.3-2.1,3.2-3.4,5.7
		c-1.2,2.5-2.4,5-3.5,7.5s-1.9,4.6-2.4,6.2c-0.3,0.1-0.4,0.1-0.5,0.1c-0.6,0-1-0.3-1.2-1c-0.2-0.7-0.3-1.7-0.3-3.2
		c0-1.3,0.1-3.8,0.3-7.5c0.2-3.6,0.3-6.1,0.3-7.2c0-0.6,0-1.3-0.1-1.9c-1.7,3.9-3.1,7.3-4.3,10.2C93,30.2,91.8,33,91,34.7
		c-0.8,1.7-1.5,3-2.1,3.9c-0.6,0.9-1.3,1.3-1.9,1.3L88.1,37.5z"/>
	<path d="M113.5,37c-0.5-0.5-0.7-1.2-0.7-2.1c0-0.9,0.3-2.1,0.8-3.7c0.5-1.6,1.2-3,1.9-4.2c0.8-1.2,1.5-1.8,2.3-1.8
		c0.2,0,0.4,0.1,0.5,0.2c0.2,0.1,0.2,0.3,0.2,0.6c0,0.3-0.4,1.1-1.1,2.3c-0.8,1.3-1.4,2.4-1.8,3.4c-0.4,1-0.7,2-0.7,2.9
		c0,0.8,0.1,1.4,0.4,1.6c0.3,0.3,0.7,0.4,1.3,0.4c1.8,0,3.6-1.8,5.3-5.3l0.3,0.3c-0.6,1.9-1.6,3.4-2.9,4.5c-1.3,1.1-2.6,1.6-4,1.6
		C114.6,37.8,114,37.6,113.5,37z M118.6,21.7c-0.3-0.2-0.4-0.5-0.4-0.8c0-0.5,0.3-0.9,0.8-1.2c0.6-0.4,1.1-0.6,1.7-0.6
		c0.8,0,1.1,0.4,1.1,1.1c0,0.4-0.2,0.9-0.7,1.3c-0.5,0.4-1,0.6-1.5,0.6C119.2,22,118.9,21.9,118.6,21.7z"/>
	<path d="M121.9,37.2c-0.3-0.7-0.4-1.6-0.4-2.5c0-2.1,0.7-5,2-8.6c1.3-3.6,2.8-6.8,4.4-9.6c1.7-2.8,3-4.2,3.9-4.2
		c0.4,0,0.7,0.2,0.8,0.7s0.3,1,0.3,1.5c0,1.1-0.4,2.5-1.2,4.3c-0.8,1.8-1.8,3.5-3,5.2c-1.2,1.7-2.5,2.9-3.8,3.7
		c-0.4,1-0.7,2.1-1,3.4c-0.2,1.3-0.3,2.4-0.3,3.4c0,0.4,0,0.8,0.1,1.2c0.9-2.7,2-4.8,3.1-6.5c1.2-1.6,2.5-2.5,3.9-2.5
		c0.9,0,1.5,0.3,2,0.9c0.4,0.6,0.7,1.3,0.7,2.2c0,0.5-0.1,1-0.2,1.5c-0.1,0.5-0.3,1.1-0.6,1.8c-0.2,0.6-0.4,1.1-0.5,1.5
		c-0.1,0.4-0.2,0.7-0.2,1.1c0,0.4,0.1,0.8,0.3,1s0.4,0.3,0.8,0.3c0.8,0,1.7-0.5,2.8-1.6s1.9-2.4,2.6-3.9l0.5,0.4
		c-0.8,1.8-1.7,3.2-2.9,4.3c-1.2,1.1-2.4,1.7-3.7,1.7c-0.8,0-1.3-0.2-1.8-0.6s-0.6-0.9-0.6-1.6c0-0.5,0.2-1.3,0.5-2.5
		c0.4-1.2,0.6-2.2,0.6-2.8c0-0.6-0.1-1-0.4-1.3c-0.2-0.3-0.6-0.4-1-0.4c-0.9,0-1.6,0.5-2.2,1.5c-0.6,1-1.3,2.4-2.1,4.2
		c-0.6,1.3-1,2.3-1.3,2.9c-0.3,0.6-0.7,0.9-1.1,0.9C122.6,38.2,122.2,37.9,121.9,37.2z M128.5,22.8c1-1.5,1.8-3,2.4-4.4
		c0.6-1.5,1-2.5,1-3.1c0-0.2,0-0.3-0.1-0.3c-0.3,0-0.8,0.6-1.6,1.7c-0.8,1.1-1.6,2.6-2.5,4.3c-0.9,1.7-1.6,3.5-2.1,5.2
		C126.5,25.5,127.5,24.3,128.5,22.8z"/>
	<path d="M137.6,37.8c-0.5-0.5-0.7-1.2-0.7-2.1c0-1.4,0.5-2.9,1.5-4.6c1-1.7,2.2-3.1,3.7-4.3c1.5-1.2,3-1.8,4.4-1.8
		c0.9,0,1.6,0.2,2.2,0.7s0.9,1.1,0.9,1.9c0,0.5-0.2,0.9-0.4,1.1c-0.3,0.2-0.7,0.3-1.2,0.3c0.1-0.4,0.2-0.8,0.2-1.2
		c0-0.6-0.1-1-0.4-1.4c-0.3-0.4-0.7-0.5-1.3-0.5c-1,0-2.1,0.6-3.2,1.7c-1.1,1.1-2.1,2.5-2.8,4s-1.1,2.9-1.1,4c0,0.9,0.3,1.3,0.9,1.3
		c0.9,0,2-0.7,3.3-2.2c1.2-1.5,2.6-3.2,4-5.3c0.3,0,0.6,0.1,0.9,0.3c0.3,0.2,0.5,0.3,0.5,0.6c0,0.2-0.1,0.5-0.3,0.9
		c-0.2,0.4-0.4,0.6-0.4,0.7c-0.4,0.7-0.7,1.3-0.9,1.8c-0.2,0.5-0.3,1-0.3,1.4c0,0.4,0.1,0.7,0.3,1.1c0.2,0.3,0.5,0.5,0.9,0.5
		c0.7,0,1.5-0.5,2.5-1.4c1-1,2-2.3,3-4l0.3,0.3c-0.5,1.2-1.1,2.3-1.9,3.3c-0.8,1-1.6,1.7-2.5,2.2c-0.9,0.5-1.7,0.8-2.5,0.8
		c-0.8,0-1.4-0.2-1.9-0.7c-0.4-0.5-0.6-1-0.6-1.7c0-0.3,0-0.6,0.1-1c-1,1.4-2,2.4-2.8,3s-1.6,1-2.4,1
		C138.7,38.6,138.1,38.3,137.6,37.8z"/>
	<path d="M146.7,46.1c-0.3-0.3-0.5-0.8-0.5-1.3c0-0.9,0.4-1.8,1.2-2.8s1.9-1.9,3.1-2.6c0.3-0.2,0.8-0.4,1.3-0.7
		c0.3-0.1,0.6-0.3,0.9-0.4c1-2.5,1.8-5.3,2.3-8.5c-0.1,0.3-0.5,0.9-1.1,1.9c-0.2,0.3-0.4,0.6-0.5,0.8l-0.3-0.5
		c0.4-0.8,0.9-1.9,1.5-3.4c0.5-1.3,0.9-2.2,1.2-2.8c0.3-0.6,0.7-0.9,1.1-0.9c0.3,0,0.5,0.1,0.6,0.3c0.1,0.2,0.2,0.4,0.2,0.7
		c0,0.6-0.3,2.1-0.8,4.4c-0.5,2.3-1.2,4.6-2,6.8l0.6-0.4c1.2-0.7,2.2-1.4,3-2.1c0.8-0.7,1.6-1.8,2.4-3.2l0.4,0.2
		c-0.7,1.5-1.5,2.7-2.4,3.5c-0.9,0.8-2.1,1.6-3.4,2.3l-1,0.6c-0.9,2.4-1.9,4.5-3,6.1c-1.1,1.6-2.3,2.4-3.6,2.4
		C147.5,46.6,147,46.5,146.7,46.1z M149.8,43.8c0.9-1.1,1.7-2.5,2.6-4.4c-1.7,0.8-3,1.7-3.9,2.6c-0.9,0.9-1.3,1.8-1.3,2.5
		c0,0.6,0.2,0.8,0.6,0.8C148.2,45.4,148.9,44.9,149.8,43.8z M156.6,21.5c-0.3-0.2-0.4-0.5-0.4-0.8c0-0.5,0.3-0.9,0.8-1.3
		c0.5-0.4,1.1-0.6,1.7-0.6c0.3,0,0.6,0.1,0.8,0.2c0.2,0.2,0.3,0.4,0.3,0.7c0,0.5-0.2,1-0.7,1.4c-0.5,0.4-1,0.6-1.6,0.6
		C157.2,21.8,156.8,21.7,156.6,21.5z"/>
	<path d="M161.2,37c-0.4-0.6-0.7-1.5-0.7-2.6c0-2.1,0.7-4.9,2.1-8.5c1.4-3.6,3-6.8,4.8-9.6c1.8-2.9,3-4.3,3.8-4.3
		c0.3,0,0.6,0.3,0.8,0.8c0.2,0.6,0.3,1.1,0.3,1.7c0,1.1-0.4,2.6-1.3,4.7c-0.9,2.1-2,4.2-3.4,6.3c-1.4,2.1-2.9,3.8-4.5,5.2
		c-0.3,1.3-0.4,2.5-0.4,3.5c0,1.8,0.5,2.7,1.5,2.7c0.9,0,1.7-0.5,2.6-1.6c0.9-1.1,1.7-2.4,2.4-3.9l0.5,0.3c-2,4.2-4.2,6.4-6.5,6.4
		C162.4,38,161.7,37.6,161.2,37z M167.3,24.7c1.2-1.9,2.2-3.8,3-5.5s1.1-3,1.1-3.8c0-0.4-0.1-0.6-0.2-0.6c-0.3,0-1,0.8-2,2.4
		c-1,1.6-2,3.5-3.1,5.8c-1.1,2.3-1.9,4.5-2.5,6.5C164.8,28.3,166.1,26.7,167.3,24.7z"/>
	<path d="M168.9,37.2c-0.4-0.6-0.7-1.3-0.7-2.3c0-0.9,0.2-1.9,0.6-3s0.9-1.9,1.5-2.6c0.6-0.7,1.2-1,1.9-1c0.2,0,0.5,0.1,0.7,0.2
		c-0.3,0.2-0.6,0.7-1,1.5c-0.4,0.8-0.7,1.6-1,2.5c-0.3,0.9-0.4,1.6-0.4,2.2c0,1.3,0.4,2,1.2,2c0.5,0,1.1-0.3,1.7-0.8
		c0.7-0.5,1.3-1.2,2-2c-0.6-0.5-1.1-1.2-1.5-2.1c-0.4-0.9-0.5-1.7-0.5-2.7c0-1.2,0.3-2.2,0.9-3.1c0.6-0.9,1.4-1.3,2.5-1.3
		c0.9,0,1.5,0.2,1.9,0.7c0.4,0.5,0.5,1.1,0.5,2c0,0.9-0.2,1.9-0.6,3c-0.4,1.1-1,2.2-1.7,3.2c0.4,0.2,0.9,0.3,1.3,0.3
		c0.7,0,1.4-0.2,2.1-0.6c0.7-0.4,1.3-1,1.6-1.9l0.4,0.3c-0.4,1-1.1,1.8-1.9,2.2c-0.8,0.5-1.6,0.7-2.5,0.7c-0.6,0-1.2-0.1-1.7-0.3
		c-0.8,1.1-1.7,2-2.6,2.6c-0.9,0.7-1.8,1-2.6,1C170,38,169.3,37.7,168.9,37.2z M177.5,30.2c0.4-0.9,0.6-1.8,0.6-2.6
		c0-0.6-0.1-1.1-0.3-1.5c-0.2-0.3-0.4-0.5-0.7-0.5c-0.3,0-0.7,0.2-1,0.5c-0.3,0.3-0.6,0.7-0.8,1.3c-0.2,0.5-0.3,1.1-0.3,1.8
		c0,0.7,0.1,1.4,0.3,2.1c0.2,0.7,0.5,1.2,0.9,1.7C176.7,32.1,177.1,31.1,177.5,30.2z"/>
	<path d="M182,37.3c-0.3-0.7-0.4-1.6-0.4-2.8c0-0.4,0.1-1.9,0.2-4.5c0-0.7,0.1-1.1,0.2-1.3c0.1-0.2,0.4-0.3,0.9-0.3
		c0.4,0,0.6,0.1,0.7,0.2c0.1,0.2,0.2,0.4,0.2,0.9c0,0.5,0,1.3-0.1,2.6c-0.1,1.1-0.2,2.1-0.2,3c0,0.7,0.1,1.2,0.2,1.5
		s0.3,0.4,0.6,0.4c0.8,0,1.7-0.8,2.8-2.3c1.1-1.6,2.1-3.3,2.9-5.2c0-1.5,0.2-2.5,0.5-3c0.3-0.6,0.6-0.9,1.1-0.9
		c0.4,0,0.7,0.1,0.9,0.4c0.2,0.3,0.3,0.6,0.3,0.9c0,0.2-0.1,0.6-0.3,1c-0.3,0.5-0.5,1.1-0.6,1.6c-0.2,0.5-0.2,1.2-0.2,2.1
		c0,0.8,0.1,1.4,0.3,1.9c0.2,0.5,0.7,0.7,1.3,0.7c0.5,0,1-0.2,1.4-0.6c0.4-0.4,0.9-1,1.3-2l0.5,0.3c-0.8,1.9-2,2.9-3.4,2.9
		c-0.8,0-1.4-0.3-1.9-0.8c-0.5-0.6-0.8-1.4-1-2.5c-0.9,1.9-2,3.5-3.2,4.9s-2.3,2-3.4,2C182.8,38.3,182.3,38,182,37.3z"/>
	<path d="M195.8,37c-0.5-0.5-0.7-1.2-0.7-2.1c0-0.9,0.3-2.1,0.8-3.7s1.2-3,1.9-4.2c0.8-1.2,1.5-1.8,2.3-1.8c0.2,0,0.4,0.1,0.5,0.2
		c0.1,0.1,0.2,0.3,0.2,0.6c0,0.3-0.4,1.1-1.1,2.3c-0.8,1.3-1.4,2.4-1.8,3.4c-0.5,1-0.7,2-0.7,2.9c0,0.8,0.1,1.4,0.4,1.6
		c0.3,0.3,0.7,0.4,1.3,0.4c1.8,0,3.6-1.8,5.3-5.3l0.3,0.3c-0.6,1.9-1.6,3.4-2.9,4.5s-2.6,1.6-4,1.6C196.9,37.8,196.3,37.6,195.8,37z
		 M200.9,21.7c-0.3-0.2-0.4-0.5-0.4-0.8c0-0.5,0.3-0.9,0.8-1.2c0.6-0.4,1.1-0.6,1.7-0.6c0.8,0,1.1,0.4,1.1,1.1
		c0,0.4-0.2,0.9-0.7,1.3c-0.5,0.4-1,0.6-1.5,0.6C201.5,22,201.2,21.9,200.9,21.7z"/>
	<path d="M204.5,37.7c-0.7-0.8-1.1-1.9-1.1-3.3c0-1.5,0.4-3,1.1-4.4c0.8-1.4,1.7-2.6,2.9-3.5c1.2-0.9,2.4-1.3,3.5-1.3
		c0.9,0,1.5,0.2,1.9,0.7c0.4,0.5,0.6,1.1,0.6,1.8c0,0.7-0.2,1.3-0.5,1.8s-0.7,0.7-1.3,0.7c-0.4,0-0.7-0.2-1-0.5
		c0.3-0.2,0.6-0.5,0.9-1.1c0.3-0.6,0.4-1.1,0.4-1.6c0-0.3-0.1-0.5-0.2-0.7s-0.3-0.2-0.6-0.2c-0.8,0-1.6,0.5-2.5,1.4
		c-0.9,0.9-1.6,2.1-2.2,3.4c-0.6,1.3-0.9,2.6-0.9,3.7c0,0.8,0.2,1.5,0.6,2.1c0.4,0.5,1,0.8,1.9,0.8c1.4,0,2.8-0.6,4.2-1.7
		c1.4-1.2,2.4-2.7,3.2-4.5l0.4,0.3c-0.5,1.4-1.3,2.6-2.2,3.7c-0.9,1.1-1.9,2-3.1,2.6c-1.1,0.6-2.2,0.9-3.3,0.9
		C206.2,38.9,205.2,38.5,204.5,37.7z M212.4,22.6c-0.1-0.2-0.1-0.4-0.1-0.5c0-0.3,0.2-0.8,0.6-1.5c0.4-0.7,0.9-1.3,1.5-1.9
		c0.6-0.6,1.1-0.8,1.5-0.8c0.4,0,0.7,0.4,0.8,1.1c-1.7,1.5-3,2.8-3.9,4C212.6,22.9,212.4,22.8,212.4,22.6z"/>
</g>
</svg>
